<svg id="data-privacy_outline" xmlns="http://www.w3.org/2000/svg" width="18" height="18" viewBox="0 0 18 18">
  <path id="Pfad_1" data-name="Pfad 1" d="M0,0H18V18H0Z" fill="none"/>
  <path id="Pfad_2" data-name="Pfad 2" d="M21.11,6.839v7.877a5.625,5.625,0,0,1-11.25,0V6.839Zm.844-.844H9.016v8.72a6.469,6.469,0,1,0,12.938,0V5.995ZM15.5,13.59a1.512,1.512,0,0,0,1.519-1.519v-.928a1.519,1.519,0,0,0-3.038,0v.928A1.55,1.55,0,0,0,15.5,13.59Zm1.585.562H13.9a1.406,1.406,0,0,0-1.518,1.406h6.187A1.369,1.369,0,0,0,17.083,14.153Z" transform="translate(-6.48 -4.309)" fill="#7e7e7e"/>
</svg>
