<svg id="icon_user_file_user_default" data-name="icon/user_file/user/default" xmlns="http://www.w3.org/2000/svg" width="24" height="24" viewBox="0 0 24 24">
  <path id="Combined_Shape" data-name="Combined Shape" d="M0,19.5l.15-1.05a4.731,4.731,0,0,1,4.7-3.95H7.1l3.1,3.1,3.1-3.1h2.25a4.731,4.731,0,0,1,4.7,3.95l.2,1.05Zm5.85-8.726A7.82,7.82,0,0,1,4.2,6,6.023,6.023,0,0,1,5.888,1.688,6.023,6.023,0,0,1,10.2,0a6.022,6.022,0,0,1,4.312,1.688A6.023,6.023,0,0,1,16.2,6a7.82,7.82,0,0,1-1.65,4.775A5.52,5.52,0,0,1,10.2,13,5.521,5.521,0,0,1,5.85,10.775ZM5.7,6c0,2.656,1.808,5.5,4.5,5.5S14.7,8.656,14.7,6a4.353,4.353,0,0,0-4.5-4.5A4.352,4.352,0,0,0,5.7,6Z" transform="translate(1.8 2)" fill="#262626"/>
</svg>
